<?xml version="1.0" encoding="UTF-8"?>
<!DOCTYPE svg PUBLIC "-//W3C//DTD SVG 1.1//EN" "http://www.w3.org/Graphics/SVG/1.1/DTD/svg11.dtd">
<svg version="1.1" xmlns="http://www.w3.org/2000/svg" xmlns:xlink="http://www.w3.org/1999/xlink">
  <defs>
    <symbol id="amd" viewBox="0 0 288.60999 286.95339">
      <polyline points="1165 92.78 1165 203.5 1282 203.5 1198 286.8 1082 287 1080 176.1 1165 92.78" fill="#009a66" transform="translate(-1080 -.0003052)"/>
      <polyline points="1165 84.08 1285 83.85 1285 203 1369 287 1369 0.12 1082 0 1165 84.08" fill="#009a66" transform="translate(-1080 -.0003052)"/>
    </symbol>
    <symbol id="arm" viewBox="110.7266 72.2266 1748.3721 564.1953">
     <g stroke-linejoin="bevel" fill-rule="evenodd" transform="matrix(1 0 0 -1 -.001525 708.6)" stroke-miterlimit="16" clip-rule="evenodd">
      <g fill-rule="nonzero" fill="#118cab">
       <path d="m728.4 72.23h-146l-44.58 111.8h-243.3l-40.54-111.8h-143.3l219.1 564.2h157.1l241.5-564.2zm-318.2 429.6-79.7-219.1h167.5l-87.83 219.1z"/>
       <path d="m1003 636.4c111.6 0 177.7-77.41 177.7-161.8 0-62.01-31.04-108.6-93.28-138.2 55.7-29.02 72.66-98.49 149.1-264.1h-149.1c-58 121-79 229.2-152.9 229.2h-38.98v-229.3h-135.5v564.2h243.3zm-107.8-231.3h71.97c37.34 0 74.06 16.34 74.06 64.49 0 42.09-26.3 63.64-77.41 63.64h-68.62v-128.1z"/>
       <path d="m1741 636.4h118.1v-564.2h-135.5v352.6l-146.5-177h-21l-146.7 177v-352.6h-135.6v564.2h117.9l174.7-209.1 174.5 209.1z"/>
      </g>
     </g>
    </symbol>
    <symbol id="centos" viewBox="0 0 60.28 60.27">
      <g transform="translate(-1.859 -1.863)">
        <g transform="translate(-165.6 -698.7)">
        <rect transform="rotate(225)" height="19" width="19" y="-375.2" x="-654.6" fill="#efa724"/>
        <rect transform="rotate(225)" height="19" width="19" y="-397.8" x="-654.6" fill="#932279"/>
        <rect height="18.95" width="18.95" y="709.2" x="176.1" fill="#9ccd2a"/>
        <rect transform="rotate(225)" height="18.95" width="18.95" y="-397.8" x="-677.2" fill="#9ccd2a"/>
        <rect height="19" width="19" y="733.1" x="176.1" fill="#262577"/>
        <rect transform="rotate(225)" height="19" width="19" y="-375.2" x="-677.2" fill="#262577"/>
        <rect height="19" width="19" y="709.1" x="200.1" fill="#932279"/>
        <rect stroke-opacity="0" transform="rotate(225)" height="19" width="19" y="-375.2" x="-677.2" fill="#262577"/>
        <rect height="19" width="19" y="733.1" x="200.1" fill="#efa724"/>
        <g fill="#fff">
        <path d="m197.6 728.8 0.3536-0.3535 13.44-13.43 0.3536-0.3535-0.3536-0.3536-13.44-13.43-0.3536-0.3535-0.3536 0.3535-13.44 13.43-0.3536 0.3536 0.3536 0.3535 13.44 13.43 0.3536 0.3535zm0-1.414-12.73-12.73 12.73-12.73 12.73 12.73-12.73 12.73z"/>
        <path d="m181.6 744.8 0.3536-0.3535 13.41-13.41 0.3536-0.3535-0.3536-0.3535-13.44-13.43-0.3536-0.3535-0.3536 0.3535-13.41 13.41-0.3536 0.3535 0.3536 0.3535 13.44 13.43 0.3536 0.3535zm0-1.414-12.73-12.73 12.71-12.71 12.73 12.73-12.71 12.71z"/>
        <path d="m175.6 708.7v0.5 18.94 0.5h0.5 18.97 0.5v-0.5-18.94-0.5h-0.5-18.97-0.5zm1 1h17.97v17.94h-17.97v-17.94z"/>
        <path d="m197.5 760.8 0.3536-0.3535 13.39-13.39 0.3536-0.3535-0.3536-0.3535-13.39-13.39-0.3536-0.3535-0.3536 0.3535-13.39 13.39-0.3536 0.3535 0.3536 0.3535 13.39 13.39 0.3536 0.3535zm0-1.414-12.68-12.68 12.68-12.68 12.68 12.68-12.68 12.68z"/>
        <path d="m175.6 732.6v0.5 19 0.5h0.5 19 0.5v-0.5-19-0.5h-0.5-19-0.5zm1 1h18v18h-18v-18z"/>
        <path d="m213.6 744.8 0.3536-0.3535 13.44-13.43 0.3536-0.3535-0.3536-0.3535-13.44-13.43-0.3536-0.3535-0.3536 0.3535-13.44 13.43-0.3536 0.3535 0.3536 0.3535 13.44 13.43 0.3536 0.3535zm0-1.414-12.73-12.73 12.73-12.73 12.73 12.73-12.73 12.73z"/>
        <path d="m199.6 708.6v0.5 19 0.5h0.5 19 0.5v-0.5-19-0.5h-0.5-19-0.5zm1 1h18v18h-18v-18z"/>
        <path d="m199.6 732.6v0.5 19 0.5h0.5 19 0.5v-0.5-19-0.5h-0.5-19-0.5zm1 1h18v18h-18v-18z"/>
        </g>
        <path d="m43.23 24.14 4.772-4.772 2.483 2.481 2.483 2.481v2.291 2.291h-7.255-7.255l4.772-4.772z" stroke-opacity="0" transform="translate(165.6 698.7)" fill="#262577"/>
        <path d="m43.23 24.14 4.772-4.772 2.483 2.481 2.483 2.481v2.291 2.291h-7.255-7.255l4.772-4.772z" stroke-opacity="0" transform="translate(165.6 698.7)" fill="#932279"/>
        </g>
      </g>
    </symbol>
    <symbol id="debian" viewBox="-60 -75 199.996 248.94701">
      <g fill="#d70751" transform="translate(-5 -5.524)">
        <path d="m64.52 62.05c-4.125 0.058 0.78 2.125 6.165 2.954 1.488-1.161 2.838-2.336 4.04-3.479-3.354 0.821-6.765 0.838-10.2 0.525"/>
        <path d="m86.66 56.53c2.457-3.389 4.246-7.102 4.878-10.94-0.551 2.736-2.035 5.099-3.435 7.592-7.711 4.854-0.726-2.883-0.004-5.824-8.29 10.44-1.138 6.257-1.439 9.171"/>
        <path d="m94.84 35.27c0.497-7.428-1.462-5.08-2.121-2.245 0.766 0.4 1.377 5.237 2.121 2.245"/>
        <path d="m48.88-66.26c2.201 0.395 4.757 0.698 4.398 1.224 2.407-0.528 2.954-1.015-4.398-1.224"/>
        <path d="m53.28-65.04-1.556 0.32 1.448-0.127 0.108-0.193"/>
        <path d="m121.9 38.08c0.247 6.671-1.95 9.907-3.932 15.64l-3.564 1.781c-2.919 5.666 0.282 3.598-1.807 8.105-4.556 4.049-13.82 12.67-16.79 13.46-2.163-0.047 1.469-2.554 1.943-3.537-6.097 4.188-4.894 6.285-14.22 8.83l-0.23-0.6c-23 10.82-54.95-10.62-54.53-39.87-0.24 1.85-0.69 1.39-1.2 2.14-1.19-15.05 6.95-30.17 20.67-36.34 13.43-6.65 29.17-3.922 38.78 5.04-5.28-6.92-15.79-14.25-28.25-13.57-12.21 0.195-23.63 7.952-27.44 16.37-6.253 3.938-6.979 15.18-9.704 17.23-3.665 26.94 6.896 38.58 24.76 52.28 2.812 1.896 0.792 2.184 1.173 3.627-5.93-2.78-11.37-6.98-15.84-12.12 2.372 3.473 4.931 6.847 8.239 9.499-5.596-1.897-13.07-13.56-15.26-14.04 9.647 17.27 39.14 30.3 54.59 23.84-7.146 0.263-16.23 0.146-24.26-2.822-3.371-1.734-7.958-5.331-7.14-6.003 21.08 7.875 42.85 5.965 61.09-8.655 4.641-3.614 9.709-9.761 11.17-9.846-2.206 3.317 0.377 1.596-1.318 4.523 4.625-7.456-2.008-3.035 4.779-12.88l2.507 3.453c-0.931-6.188 7.687-13.7 6.813-23.49 1.975-2.994 2.206 3.22 0.107 10.11 2.912-7.64 0.767-8.867 1.516-15.17 0.81 2.118 1.867 4.37 2.412 6.606-1.895-7.382 1.948-12.43 2.898-16.72-0.937-0.415-2.928 3.264-3.383-5.457 0.065-3.788 1.054-1.985 1.435-2.917-0.744-0.427-2.694-3.33-3.88-8.9 0.86-1.308 2.3 3.393 3.47 3.586-0.753-4.429-2.049-7.805-2.103-11.2-3.421-7.149-1.211 0.953-3.985-3.069-3.641-11.36 3.021-2.637 3.47-7.796 5.52 7.995 8.667 20.39 10.11 25.52-1.103-6.258-2.883-12.32-5.058-18.18 1.677 0.705-2.699-12.88 2.18-3.882-5.21-19.17-22.3-37.09-38.02-45.49 1.924 1.76 4.354 3.971 3.481 4.317-7.819-4.656-6.444-5.018-7.565-6.985-6.369-2.591-6.788 0.208-11.01 0.004-12-6.368-14.32-5.69-25.37-9.681l0.502 2.349c-7.953-2.649-9.265 1.005-17.86 0.009-0.523-0.409 2.753-1.479 5.452-1.871-7.69 1.015-7.329-1.515-14.85 0.279 1.855-1.301 3.815-2.162 5.793-3.269-6.271 0.381-14.97 3.649-12.29 0.677-10.24 4.569-28.4 10.98-38.6 20.54l-0.321-2.142c-4.672 5.608-20.37 16.75-21.62 24.01l-1.249 0.291c-2.431 4.116-4.004 8.781-5.932 13.02-3.18 5.417-4.661 2.085-4.208 2.934-6.253 12.68-9.359 23.33-12.04 32.07 1.912 2.858 0.046 17.21 0.769 28.69-3.141 56.71 39.8 111.8 86.74 124.5 6.88 2.459 17.11 2.364 25.81 2.618-10.27-2.937-11.6-1.556-21.6-5.044-7.215-3.398-8.797-7.277-13.91-11.71l2.022 3.573c-10.02-3.547-5.829-4.39-13.98-6.972l2.16-2.82c-3.22-0.3-8.58-5.6-10.04-8.5l-3.553 0.14c-4.27-5.269-6.545-9.063-6.379-12l-1.148 2.047c-1.301-2.235-15.71-19.76-8.234-15.68-1.389-1.271-3.235-2.067-5.237-5.703l1.522-1.739c-3.597-4.627-6.621-10.56-6.391-12.54 1.919 2.592 3.25 3.075 4.568 3.52-9.083-22.54-9.593-1.242-16.47-22.94l1.456-0.116c-1.116-1.682-1.793-3.506-2.69-5.298l0.633-6.313c-6.55-7.47-1.84-32.06-0.9-45.55 0.66-5.48 5.46-11.32 9.12-20.47l-2.227-0.384c4.256-7.423 24.3-29.81 33.58-28.66 4.499-5.649-0.892-0.02-1.772-1.443 9.878-10.22 12.98-7.222 19.65-9.061 7.19-4.268-6.17 1.664-2.761-1.628 12.43-3.174 8.808-7.216 25.02-8.828 1.71 0.973-3.969 1.503-5.395 2.766 10.35-5.066 32.77-3.914 47.33 2.811 16.9 7.896 35.87 31.23 36.62 53.19l0.852 0.229c-0.431 8.729 1.336 18.82-1.727 28.09l2.1-4.385"/>
        <path d="m19.5 67.72-0.578 2.893c2.71 3.683 4.861 7.673 8.323 10.55-2.49-4.863-4.341-6.872-7.745-13.44"/>
        <path d="m25.91 67.46c-1.435-1.587-2.284-3.497-3.235-5.4 0.909 3.345 2.771 6.219 4.504 9.143l-1.269-3.743"/>
        <path d="m139.3 42.81-0.605 1.52c-1.111 7.892-3.511 15.7-7.189 22.94 4.06-7.639 6.69-16 7.79-24.46"/>
        <path d="m49.7-68.24c2.789-1.022 6.855-0.56 9.814-1.233-3.855 0.324-7.693 0.517-11.48 1.005l1.67 0.228"/>
        <path d="m-48.22-16.18c0.642 5.951-4.477 8.26 1.134 4.337 3.007-6.773-1.175-1.87-1.134-4.337"/>
        <path d="m-54.81 11.36c1.292-3.967 1.526-6.349 2.02-8.645-3.571 4.566-1.643 5.539-2.02 8.645"/>
      </g>
    </symbol>
    <!-- Gentoo -->
    <linearGradient id="gentoo_a">
      <stop stop-color="#fff" offset="0"/>
      <stop stop-color="#fff" offset=".3421"/>
      <stop stop-color="#bebdf3" offset="0.52"/>
      <stop stop-color="#8f82f9" offset=".7541"/>
      <stop stop-color="#9f99c7" offset=".8711"/>
      <stop stop-color="#524c76" offset="1"/>
    </linearGradient>
    <linearGradient id="gentoo_e" y2="269.7" xlink:href="#gentoo_a" gradientUnits="userSpaceOnUse" x2="368.6" gradientTransform="matrix(1.237 0 0 1.237 -161.1 -377.3)" y1="697.4" x1="464"/>
    <linearGradient id="gentoo_d" y2="1341" xlink:href="#gentoo_a" gradientUnits="userSpaceOnUse" x2="1100" gradientTransform="matrix(1.237 0 0 1.237 -1037 -1010)" y1="-313.5" x1="783.9"/>
    <radialGradient id="gentoo_c" xlink:href="#gentoo_a" gradientUnits="userSpaceOnUse" cy="590.6" cx="332.7" gradientTransform="matrix(-.06604 4.19 -3.574 -.05627 2168 -1171)" r="218"/>
    <radialGradient id="gentoo_b" xlink:href="#gentoo_a" gradientUnits="userSpaceOnUse" cy="320.1" cx="49.53" gradientTransform="matrix(3.287 0 0 2.52 111.7 -642.7)" r="31.95"/>
    <symbol id="gentoo" viewBox="0 0 594.7 622.5">
      <g transform="translate(-25.69 -25.52)">
        <path d="m25.76 521.9c0.07-26.2 22.39-62.9 54.11-96.2 21.23-22.3 42.73-41.8 89.63-81.8-32.4-17.8-82.92-39.3-108.3-67.5-9.33-10.4-26.32-34-23.03-65.5 6.72-64.3 86.03-161.8 198.7-182.4 37.5-6.83 80.6-1.88 116 14.05 111.2 49.99 247.2 174.2 263.9 234.8 5.9 21.3 4.7 55.3-5.4 74.3-12.6 23.5-56.1 71.2-115.7 120.4-93.5 77.3-224.6 160.3-322.4 174.3-31.6 4.5-63.9-0.2-86.56-13-35.46-20-47.23-46.8-51.37-54.8-11-21.3-9.64-48.2-9.61-56.7zm263.1-295c1.2-14.9 59.6-0.1 55.9 11.7-3.9 12.4-57.3 5.4-55.9-11.7z" fill-rule="evenodd" fill="url(#gentoo_d)"/>
      </g>
      <g fill-rule="evenodd" transform="translate(-25.69 -25.52)">
        <path d="m201.1 319.3c-30.7 25.9-51.1 43.4-76.7 66.8-61.71 56.4-103.6 99.3-82.02 157.9 24.93 67.7 79.52 64.3 143.6 51.7 165.1-32.6 436.6-241.3 422.8-318.4-11.2-62.3-162.9-186.3-252.7-230.4-28-13.84-60.4-20.97-92.8-19.44-123.5 5.83-219.9 118.2-215 179.1 4.83 59.3 154.6 110.9 152.8 112.7zm-18.5-206.9c-37.2 41.3-13.4 121.3 48.2 164.9 72.1 51 188.9 60.2 212.1 20.9 43.3-73.4-4-150.9-74.6-185.6-69.8-34.15-162.5-25.97-185.7-0.2z" fill="url(#gentoo_e)"/>
        <path d="m309.3 275.6c52.2 7.2 97.1-13.7 104.1-65.2 5.4-39.2-54.6-82.1-90.7-92-30.2-8.2-95.6 2.4-100.1 59.4-4.5 59.3 56.3 93.5 86.7 97.8zm-25.5-98.6c-34.3 53.1 49.7 69.4 62.6 59.7 55.5-41.7-47.5-83.1-62.6-59.7z" fill="url(#gentoo_b)"/>
      </g>
      <g transform="translate(-25.69 -25.52)">
        <path d="m253.4 41.57c-60.7 6.39-72.3 14.19-127.2 55.75-18.4 13.98-52.32 47.78-61 87.98-3.3 15.4 0.6 28.6 11.63 37.9 35.27 29.6 94.37 53.7 142.9 77 14.2 6.8 4.8 19.2-18.1 39-57.8 50.1-135.9 111-141.4 157.4-2.52 21.8 4.97 51.5 31.51 66.8 30.99 17.7 95.39 6.1 138.4-9.9 62.8-23.4 145.3-75 210.8-125.7 68.1-52.8 131.4-119.8 134.5-130.7 3.9-13.4 3.5-25.8-3.9-40.1-11.7-22.4-27.3-39-44-57.6-44.9-47.4-92.4-89-149.3-120.8-41-23.05-77.1-42.06-124.8-37.03zm89 106.1c43.8 21.2 88.8 76.8-0.4 108.8-24.2 8.7-101.1-21.4-98.8-62.4 3.5-60.7 45.7-72.3 99.2-46.4z" fill-rule="evenodd" fill="url(#gentoo_c)"/>
      </g>
    </symbol>
    <symbol id="intel" viewBox="0 0 293 194">
      <g fill="#127cc1">
      <path d="m291.3 55.06c-13.8-67.18-143.8-71.43-227.6-20.25l0.04 5.65c83.66-43.19 202.4-42.92 213.3 18.96 3.6 20.5-7.9 41.78-28.4 54.08v16.1c24.7-9.1 50-38.51 42.7-74.54m-152.4 117.6c-57.8 5.3-118-3.1-126.5-48.5-4.17-22.3 6.03-46.01 19.48-60.72v-7.87c-24.26 21.35-37.43 48.39-29.82 80.19 9.7 41 61.4 64.1 140.3 56.4 31.3-3 72.2-13.1 100.5-28.8v-22.2c-25.8 15.4-68.4 28.2-104 31.5z"/>
      <path d="m238.3 45.35h-15.1v67.85c0 7.9 3.8 14.9 15.1 15.9"/>
      <path d="m57.73 70.13h-15.16v44.27c0 8 3.81 14.9 15.16 16"/>
      <rect height="14.43" width="15.16" y="47.41" x="42.57"/>
      <path d="m148.6 129.7c-12.3 0-17.5-8.6-17.5-17v-58.86h15v16.29h11.3v12.2h-11.3v29.47c0 3.4 1.6 5.3 5.2 5.3h6.1v12.6h-8.8"/>
      <path d="m188.4 81.59c-5.1 0-9.1 2.66-10.7 6.26-1 2.17-1.3 3.82-1.5 6.49h23.2c-0.3-6.51-3.3-12.75-11-12.75m-12.2 23.01c0 7.7 4.8 13.4 13.3 13.4 6.7 0 10-1.8 13.9-5.7l9.2 9c-5.9 5.8-12.2 9.4-23.2 9.4-14.4 0-28.1-7.9-28.1-30.84 0-19.65 12-30.74 27.8-30.74 16 0 25.2 12.99 25.2 30.05v5.43h-38.1"/>
      <path d="m98.58 82.33c4.42 0 6.22 2.17 6.22 5.72v41.75h15.1v-41.81c0-8.49-4.6-17.86-17.7-17.86h-31.07v59.67h14.99v-47.47"/>
        <g transform="scale(1.011 .9893)">
        <path style="" d="m249.5 45.64q1.302 0 2.543 0.6716 1.24 0.6648 1.933 1.912 0.6922 1.24 0.6922 2.59 0 1.336-0.6853 2.57-0.6785 1.234-1.912 1.919-1.227 0.6785-2.57 0.6785t-2.577-0.6785q-1.227-0.6853-1.912-1.919-0.6853-1.234-0.6853-2.57 0-1.35 0.6922-2.59 0.699-1.247 1.939-1.912 1.24-0.6716 2.543-0.6716zm0 0.8566q-1.09 0-2.124 0.562-1.028 0.5551-1.61 1.597-0.5825 1.035-0.5825 2.159 0 1.117 0.5688 2.145 0.5757 1.021 1.604 1.597 1.028 0.5688 2.145 0.5688t2.145-0.5688q1.028-0.5757 1.597-1.597 0.5688-1.028 0.5688-2.145 0-1.124-0.5825-2.159-0.5757-1.042-1.61-1.597-1.035-0.562-2.118-0.562zm-2.268 7.175v-5.565h1.912q0.98 0 1.419 0.1576 0.4386 0.1508 0.699 0.5345 0.2604 0.3838 0.2604 0.8155 0 0.6099-0.4386 1.062-0.4318 0.4523-1.151 0.5071 0.2947 0.1234 0.4729 0.2947 0.3358 0.329 0.8224 1.103l0.6785 1.09h-1.096l-0.4934-0.8772q-0.5825-1.035-0.9389-1.295-0.2467-0.1919-0.7196-0.1919h-0.5277v2.364h-0.8978zm0.8978-3.132h1.09q0.7813 0 1.062-0.233 0.2878-0.233 0.2878-0.6168 0-0.2467-0.1371-0.4386-0.1371-0.1987-0.3838-0.2947-0.2399-0.09594-0.8978-0.09594h-1.021v1.679z"/>
        </g>
      </g>
    </symbol>
    <symbol id="opensuse" viewBox="72.8 75.424 68.113283 64.861127">
      <g transform="translate(-174 -2.156)">
        <path fill="#fff" d="m290.6 91.38c7.69 0.27 13.72 6.75 13.46 14.43-0.14 3.72-1.699 7.16-4.42 9.7-2.72 2.55-6.26 3.87-10 3.74-7.68-0.28-13.7-6.75-13.45-14.43 0.13-3.72 1.689-7.17 4.42-9.71 2.719-2.54 6.269-3.86 9.989-3.73zm9.81 14.14c0.18-5.47-4.101-10.07-9.57-10.26-2.649-0.1-5.17 0.84-7.1 2.65-1.931 1.8-3.061 4.25-3.141 6.9-0.18 5.47 4.101 10.07 9.561 10.27 2.66 0.08 5.18-0.86 7.12-2.66 1.93-1.81 3.05-4.26 3.13-6.9z"/><path fill="#73ba25" d="m290.8 95.26c5.47 0.19 9.75 4.79 9.57 10.26-0.08 2.64-1.2 5.09-3.13 6.9-1.94 1.8-4.46 2.74-7.12 2.66-5.46-0.2-9.74-4.8-9.561-10.27 0.08-2.65 1.21-5.1 3.141-6.9 1.93-1.81 4.45-2.75 7.1-2.65zm6.02 7.91c0-1.63-1.971-2.94-4.4-2.94s-4.39 1.31-4.39 2.94c0 1.61 1.96 2.93 4.39 2.93s4.4-1.32 4.4-2.93z"/><path fill="#fff" d="m292.4 100.2c2.43 0 4.4 1.31 4.4 2.94 0 1.61-1.971 2.93-4.4 2.93s-4.39-1.32-4.39-2.93c0-1.63 1.96-2.94 4.39-2.94z"/><path fill="#73ba25" d="m181.3 2.156-0.2617 0.07031-0.0996 0.2285s-0.1296 6.762-0.1406 7.512c-0.8961-0.2978-3.376-1.095-6.842-2.094v58.06c3.387-0.9455 7.956-0.4395 13.3 0.1719 3.37 0.38 7.209 0.8202 11.18 0.9102 11.08 0.07 23.01-1.96 30.37-5.18 4.76-2.08 7.8-3.459 9.699-5.189 0.69-0.56 1.051-1.491 1.41-2.471l0.2598-0.6602c0.31-0.8 0.7602-2.49 0.9492-3.42 0.09-0.4 0.1306-0.8503-0.1484-1.07l-1 0.2c-3.23 1.94-11.3 5.629-18.86 5.779-9.37 0.19-28.25-9.429-30.22-10.45l-0.1797-0.2207c-0.48-1.13-3.309-7.83-3.91-9.24 13.59 8.95 24.86 13.9 33.49 14.66 9.6 0.86 17.09-4.379 20.29-6.619 0.63-0.42 1.101-0.7718 1.301-0.8418l0.1992-0.3398c-0.53-3.37-5.55-19.7-9.34-23.62-1.051-1.08-1.891-2.121-3.59-3.121-13.7-8.005-46.3-12.84-47.9-13.05zm36.42 13.8c7.69 0.27 13.72 6.752 13.46 14.43-0.14 3.72-1.7 7.159-4.42 9.699-2.72 2.55-6.26 3.87-10 3.74-7.679-0.28-13.7-6.75-13.45-14.43 0.13-3.72 1.69-7.171 4.42-9.711 2.719-2.54 6.268-3.86 9.988-3.73z" transform="translate(72.8 75.42)"/>
      </g>
    </symbol>
    <symbol id="raspberry" viewBox="0 0 560.45911 715.72589">
      <path d="m151.7 0.01071c-3.619 0.1123-7.517 1.449-11.94 4.937-10.83-4.176-21.33-5.627-30.72 2.875-14.5-1.881-19.21 2-22.78 6.531-3.183-0.066-23.82-3.272-33.28 10.84-23.78-2.814-31.3 13.99-22.78 29.66-4.857 7.519-9.89 14.95 1.469 29.28-4.018 7.984-1.527 16.64 7.938 27.12-2.498 11.22 2.412 19.14 11.22 25.31-1.647 15.36 14.08 24.29 18.78 27.47 1.804 8.949 5.563 17.39 23.53 22.06 2.963 13.34 13.76 15.64 24.22 18.44-34.56 20.09-64.2 46.52-64 111.4l-5.062 9.031c-39.63 24.1-75.28 101.6-19.53 164.5 3.642 19.71 9.75 33.86 15.19 49.53 8.134 63.13 61.22 92.69 75.22 96.19 20.52 15.63 42.37 30.46 71.94 40.84 27.88 28.75 58.07 39.71 88.44 39.69 0.4452-0.00028 0.8985 0.005 1.344 0 30.36 0.0189 60.56-10.94 88.44-39.69 29.57-10.39 51.42-25.22 71.94-40.84 14-3.496 67.08-33.06 75.22-96.19 5.438-15.67 11.55-29.82 15.19-49.53 55.75-62.96 20.1-140.4-19.53-164.5l-5.07-9.03c0.2007-64.85-29.44-91.28-64-111.4 10.46-2.798 21.26-5.101 24.22-18.44 17.97-4.67 21.73-13.11 23.53-22.06 4.698-3.181 20.43-12.11 18.78-27.47 8.807-6.172 13.72-14.09 11.22-25.31 9.465-10.48 11.96-19.14 7.938-27.12 11.36-14.33 6.32-21.76 1.47-29.28 8.51-15.67 1-32.47-22.79-29.66-9.46-14.12-30.09-10.91-33.28-10.84-3.57-4.531-8.28-8.412-22.78-6.531-9.39-8.502-19.89-7.051-30.72-2.875-12.86-10.15-21.37-2.013-31.09 1.062-15.57-5.088-19.13 1.881-26.78 4.719-16.98-3.588-22.14 4.224-30.28 12.47l-9.469-0.1875c-25.61 15.09-38.33 45.83-42.84 61.62-4.512-15.8-17.21-46.54-42.81-61.62l-9.469 0.1875c-8.15-8.245-13.31-16.06-30.29-12.47-7.65-2.838-11.2-9.806-26.78-4.719-6.38-2.018-12.25-6.214-19.16-6z"/>
      <path fill="#75a928" d="m100.7 66.41c67.95 35.03 107.4 63.37 129.1 87.5-11.08 44.42-68.9 46.44-90.04 45.2 4.328-2.015 7.94-4.428 9.22-8.136-5.304-3.77-24.11-0.3972-37.24-7.774 5.044-1.045 7.404-2.063 9.763-5.785-12.41-3.957-25.77-7.366-33.63-13.92 4.241 0.0524 8.201 0.9488 13.74-2.893-11.11-5.988-22.97-10.73-32.18-19.89 5.745-0.1406 11.94-0.0568 13.74-2.17-10.17-6.301-18.75-13.31-25.85-20.97 8.04 0.9705 11.44 0.1348 13.38-1.266-7.688-7.874-17.42-14.52-22.06-24.23 5.97 2.058 11.43 2.845 15.37-0.1808-2.612-5.894-13.8-9.37-20.25-23.14 6.284 0.6094 12.95 1.371 14.28 0-2.917-11.88-7.922-18.56-12.83-25.49 13.45-0.2 33.83 0.052 32.9-1.085l-8.316-8.497c13.14-3.537 26.58 0.5682 36.34 3.616 4.382-3.458-0.0776-7.83-5.424-12.29 11.16 1.491 21.25 4.057 30.37 7.593 4.872-4.399-3.164-8.799-7.051-13.2 17.25 3.273 24.56 7.871 31.82 12.48 5.269-5.051 0.3017-9.343-3.254-13.74 13.01 4.817 19.7 11.04 26.76 17.18 2.391-3.227 6.075-5.592 1.627-13.38 9.234 5.323 16.19 11.6 21.33 18.62 5.713-3.638 3.404-8.613 3.435-13.2 9.597 7.806 15.69 16.11 23.14 24.23 1.502-1.093 2.817-4.802 3.978-10.67 22.9 22.21 55.25 78.16 8.316 100.3-39.94-32.94-87.64-56.88-140.5-74.84z"/>
      <path fill="#75a928" d="m461.3 66.41c-67.94 35.03-107.4 63.36-129.1 87.5 11.08 44.42 68.9 46.44 90.04 45.2-4.328-2.015-7.94-4.428-9.22-8.136 5.304-3.77 24.11-0.3972 37.24-7.774-5.044-1.045-7.404-2.063-9.763-5.785 12.41-3.957 25.77-7.366 33.63-13.92-4.241 0.0524-8.201 0.9488-13.74-2.893 11.11-5.988 22.97-10.73 32.18-19.89-5.745-0.1406-11.94-0.0568-13.74-2.17 10.17-6.301 18.75-13.31 25.85-20.97-8.04 0.9705-11.44 0.1348-13.38-1.266 7.688-7.874 17.42-14.52 22.06-24.23-5.97 2.058-11.43 2.845-15.37-0.1808 2.612-5.894 13.8-9.37 20.25-23.14-6.284 0.6094-12.95 1.371-14.28 0 2.922-11.89 7.928-18.57 12.84-25.49-13.45-0.1997-33.83 0.05235-32.9-1.085l8.316-8.497c-13.14-3.537-26.58 0.5682-36.34 3.616-4.382-3.458 0.0776-7.83 5.424-12.29-11.16 1.491-21.25 4.057-30.37 7.593-4.872-4.399 3.164-8.799 7.051-13.2-17.25 3.273-24.56 7.871-31.82 12.48-5.269-5.051-0.3017-9.343 3.254-13.74-13.01 4.817-19.7 11.04-26.76 17.18-2.391-3.227-6.075-5.592-1.627-13.38-9.234 5.323-16.19 11.6-21.33 18.62-5.713-3.638-3.404-8.613-3.435-13.2-9.597 7.806-15.69 16.11-23.14 24.23-1.502-1.093-2.817-4.802-3.978-10.67-22.9 22.21-55.25 78.16-8.316 100.3 39.92-32.95 87.62-56.89 140.5-74.85z"/>
      <g fill="#bc1142">
        <path d="m363.3 518.7a81.39 75.05 0 1 1 -162.8 0 81.39 75.05 0 1 1 162.8 0z"/>
        <path d="m234.8 304.3a73 86.13 34.03 0 1 -95 143.7 73 86.13 34.03 0 1 95 -143.7z"/>
        <path d="m325.8 300.3a86.13 73 55.97 1 0 95 143.7 86.13 73 55.97 1 0 -95 -143.7z"/>
        <path d="m66.24 340.4c36.41-9.76 12.29 150.6-17.33 137.5-32.59-26.21-43.08-103 17.33-137.5z"/>
        <path d="m487 338.4c-36.41-9.757-12.29 150.6 17.33 137.5 32.59-26.21 43.08-103-17.33-137.5z"/>
        <path d="m363.3 219c62.84-10.61 115.1 26.72 113 94.86-2.067 26.12-136.2-90.97-113-94.86z"/>
        <path d="m189.7 217c-62.84-10.61-115.1 26.73-113 94.86 2.067 26.12 136.2-90.97 113-94.86z"/>
        <path d="m280 201.1c-37.5-0.9755-73.5 27.83-73.58 44.54-0.1046 20.3 29.65 41.09 73.84 41.62 45.12 0.3232 73.92-16.64 74.06-37.59 0.1648-23.74-41.04-48.94-74.32-48.57z"/>
        <path d="m282.2 617.5c32.7-1.427 76.57 10.53 76.66 26.4 0.5427 15.4-39.79 50.21-78.83 49.54-40.43 1.744-80.07-33.12-79.55-45.2-0.6051-17.72 49.23-31.55 81.72-30.74z"/>
        <path d="m161.5 523.5c23.28 28.05 33.89 77.32 14.46 91.84-18.38 11.09-63.01 6.522-94.74-39.05-21.4-38.24-18.64-77.16-3.616-88.59 22.46-13.68 57.17 4.799 83.89 35.8z"/>
        <path d="m398.4 514.6c-25.19 29.5-39.21 83.31-20.84 100.6 17.57 13.46 64.73 11.58 99.57-36.76 25.3-32.46 16.82-86.68 2.371-101.1-21.46-16.6-52.28 4.645-81.1 37.19z"/>
      </g>
    </symbol>
    <symbol id="ubuntu" viewBox="0 0 146 150.9">
      <g transform="translate(-10 -4.544)">
        <circle transform="matrix(1.609 0 0 1.609 10 4.541)" cy="46.9" cx="9.124" r="9.124" fill="#ff6309"/>
        <circle transform="matrix(1.609 0 0 1.609 10 4.541)" cy="84.67" cx="74.55" r="9.124" fill="#ffb515"/>
        <circle transform="matrix(1.609 0 0 1.609 10 4.541)" cy="9.126" cx="74.54" r="9.124" fill="#c90016"/>
        <path fill="#ff6309" d="m94.86 43.68c18.28 0 33.45 13.57 35.96 31.17h25.15c-1.142-13.83-6.876-26.72-16.46-36.88-6.139 3.126-13.69 3.186-20.1-0.5149-6.417-3.706-10.14-10.28-10.5-17.16-4.555-1.062-9.262-1.612-14.06-1.612-9.178 0-18.05 2.003-26.11 5.802l12.59 21.81c4.182-1.683 8.745-2.613 13.52-2.613z"/>
        <path fill="#ffb515" d="m58.53 80.01c0-11.57 5.44-21.9 13.9-28.56l-12.59-21.8c-2.953 2.063-5.746 4.398-8.348 6.998-7.286 7.286-12.51 16.08-15.39 25.68 5.793 3.752 9.629 10.27 9.629 17.68 0 7.415-3.836 13.93-9.629 17.68 2.875 9.601 8.1 18.4 15.39 25.68 2.6 2.6 5.39 4.932 8.341 6.996l12.6-21.8c-8.46-6.7-13.9-17.02-13.9-28.59z"/>
        <path fill="#c90016" d="m130.8 85.15c-2.505 17.6-17.68 31.19-35.96 31.19-4.779 0-9.344-0.93-13.53-2.616l-12.59 21.81c8.065 3.801 16.94 5.805 26.12 5.805 4.797 0 9.51-0.5535 14.07-1.616 0.3508-6.895 4.076-13.48 10.5-17.18 6.414-3.704 13.97-3.645 20.11-0.5117 9.577-10.17 15.3-23.05 16.44-36.88l-25.15-0.000006z"/>
      </g>
    </symbol>
    <symbol id="redhat" viewBox="0 0 30.27 26.11">
      <path d="m27.16 22.78c-0.569-0.132-1.173-0.214-1.783-0.214-1.045 0-1.995 0.182-2.696 0.473-0.078 0.039-0.132 0.119-0.132 0.211 0 0.033 0.007 0.068 0.021 0.095 0.082 0.241-0.054 0.501-0.732 0.651-1.006 0.221-1.641 1.258-2.004 1.601-0.427 0.406-1.631 0.655-1.45 0.413 0.142-0.189 0.684-0.778 1.013-1.414 0.296-0.567 0.559-0.73 0.92-1.272 0.107-0.159 0.518-0.719 0.638-1.16 0.134-0.433 0.089-0.974 0.141-1.197 0.074-0.322 0.377-1.019 0.4-1.414 0.013-0.223-0.931 0.318-1.379 0.318s-0.885-0.268-1.285-0.286c-0.495-0.025-0.814 0.381-1.263 0.309-0.25-0.03-0.47-0.26-0.92-0.28-0.63-0.02-1.41 0.36-2.87 0.31-1.44-0.05-2.77-1.82-2.95-2.1-0.21-0.33-0.47-0.33-0.75-0.07-0.288 0.26-0.638 0.06-0.736-0.12-0.189-0.33-0.693-1.29-1.474-1.49-1.08-0.28-1.627 0.598-1.556 1.296 0.072 0.708 0.531 0.907 0.744 1.284 0.211 0.376 0.32 0.621 0.718 0.788 0.284 0.117 0.389 0.292 0.305 0.524-0.074 0.2-0.368 0.25-0.563 0.26-0.411 0.02-0.699-0.09-0.91-0.23-0.244-0.16-0.444-0.37-0.656-0.74-0.248-0.4-0.637-0.58-1.09-0.58-0.216 0-0.419 0.058-0.598 0.148-0.71 0.371-1.556 0.59-2.466 0.59h-1.028c-0.5-1.48-0.77-3.07-0.77-4.72 0-8.153 6.611-14.76 14.77-14.76 8.154 0 14.77 6.607 14.77 14.76 0 2.958-0.871 5.71-2.37 8.022"/>
      <path d="m18.02 21.43c0.076 0.073 0.207 0.322 0.047 0.639-0.09 0.168-0.187 0.285-0.359 0.423-0.209 0.167-0.614 0.359-1.17 0.005-0.3-0.189-0.319-0.253-0.732-0.199-0.295 0.038-0.412-0.261-0.307-0.508 0.107-0.247 0.542-0.447 1.085-0.129 0.245 0.143 0.625 0.447 0.957 0.177 0.139-0.109 0.222-0.183 0.413-0.405 0.009-0.009 0.021-0.014 0.035-0.014 0.012 0 0.023 0.004 0.031 0.011"/>
      <path fill="#e93442" d="m13.62 7.028c-1.705 0.123-1.883 0.307-2.202 0.646-0.45 0.481-1.044-0.621-1.044-0.621-0.357-0.075-0.788-0.649-0.555-1.184 0.23-0.53 0.654-0.372 0.786-0.207 0.161 0.201 0.506 0.53 0.954 0.518s0.964-0.106 1.685-0.106c0.73 0 1.22 0.272 1.247 0.507 0.025 0.199-0.059 0.387-0.871 0.447m1.792-2.817h-0.008c-0.026 0-0.047-0.02-0.047-0.044 0-0.018 0.011-0.034 0.027-0.041 0.331-0.174 0.824-0.314 1.388-0.37 0.169-0.018 0.335-0.028 0.494-0.028h0.085c0.947 0.022 1.704 0.398 1.693 0.84-0.012 0.442-0.787 0.783-1.735 0.763-0.305-0.008-0.593-0.052-0.84-0.124-0.031-0.007-0.051-0.032-0.051-0.062 0-0.029 0.02-0.054 0.052-0.062 0.589-0.136 0.988-0.36 0.96-0.571-0.038-0.279-0.809-0.431-1.725-0.339-0.101 0.01-0.198 0.023-0.293 0.038m7.69 6.621c-0.146 0.49-0.353 1.117-1.277 1.591-0.135 0.069-0.185-0.044-0.124-0.15 0.35-0.594 0.411-0.742 0.513-0.975 0.141-0.343 0.217-0.83-0.066-1.844-0.555-1.997-1.715-4.668-2.556-5.533-0.813-0.836-2.285-1.072-3.617-0.73-0.49 0.125-1.449 0.623-3.227 0.223-3.077-0.693-3.533 0.847-3.709 1.518-0.178 0.671-0.602 2.578-0.602 2.578-0.141 0.778-0.326 2.128 4.453 3.039 2.226 0.423 2.338 0.999 2.438 1.412 0.177 0.741 0.459 1.165 0.777 1.377s0 0.388-0.353 0.423c-0.947 0.099-4.452-0.906-6.526-2.083-1.696-1.036-1.724-1.968-1.336-2.76-2.562-0.277-4.485 0.24-4.833 1.453-0.599 2.08 4.576 5.634 10.47 7.418 6.184 1.871 12.54 0.564 13.25-3.321 0.321-1.765-1.166-3.071-3.675-3.636"/>
      <g transform="translate(-.33 -.157)">
      <path d="m29.71 22.15h0.133l0.201 0.33h0.13l-0.218-0.336c0.113-0.014 0.198-0.073 0.198-0.209 0-0.151-0.089-0.217-0.268-0.217h-0.291v0.762h0.115v-0.33zm0-0.098v-0.237h0.157c0.079 0 0.165 0.019 0.165 0.112 0 0.118-0.086 0.125-0.184 0.125h-0.138z"/>
      <path d="m30.6 22.1c0 0.411-0.334 0.745-0.746 0.745s-0.747-0.334-0.747-0.745 0.335-0.747 0.747-0.747 0.746 0.336 0.746 0.747m-0.746-0.614c-0.34 0-0.615 0.274-0.615 0.615 0 0.337 0.275 0.611 0.615 0.611 0.338 0 0.613-0.274 0.613-0.611 0-0.341-0.275-0.615-0.613-0.615"/>
      </g>
    </symbol>
    <symbol id="warning" viewBox="0 0 607.83788 532.96801">
      <path fill="#ea0000" d="m604.6 496.2-279.4-483.9c-4.4-7.626-12.5-12.3-21.3-12.3-8.76 0-16.85 4.674-21.23 12.26l-279.4 483.9c-4.375 7.58-4.375 16.93 0.003 24.52 4.379 7.58 12.47 12.25 21.23 12.25h558.8c8.76 0 16.86-4.67 21.23-12.25 4.38-7.59 4.38-16.94 0-24.52z"/>
      <polygon points="93.98 482.9 533.9 482.9 313.9 101.9" fill="#fff" transform="translate(-10.02 -8.738)"/>
      <path d="m281.9 334.6c1.21 11.49 3.21 20.04 6.02 25.66 2.81 5.63 7.82 8.43 15.04 8.43h2.01c7.22 0 12.24-2.8 15.04-8.43 2.81-5.62 4.82-14.17 6.02-25.66l6.42-88.75c1.21-17.3 1.81-29.71 1.81-37.25 0-10.25-2.91-18.25-8.73-23.99-5.53-5.46-13.38-8.59-21.56-8.59s-16.04 3.13-21.57 8.59c-5.81 5.74-8.72 13.74-8.72 23.99 0 7.54 0.6 19.95 1.8 37.25l6.42 88.75z"/>
      <circle cy="422.1" cx="303.9" r="30.75"/>
    </symbol>
  </defs>
</svg>
