<?xml version="1.0" encoding="UTF-8" standalone="no"?>
<svg xmlns:rdf="http://www.w3.org/1999/02/22-rdf-syntax-ns#" xmlns="http://www.w3.org/2000/svg" height="46.17mm" width="276.7mm" version="1.1" xmlns:cc="http://creativecommons.org/ns#" xmlns:xlink="http://www.w3.org/1999/xlink" viewBox="0 0 980.28023 163.60091" xmlns:dc="http://purl.org/dc/elements/1.1/">
 <defs>
  <linearGradient id="a">
   <stop stop-color="#4b4b4b" offset="0"/>
   <stop stop-color="#737373" offset=".6215"/>
   <stop stop-color="#4b4b4b" offset=".6237"/>
   <stop stop-color="#4b4b4b" offset="1"/>
  </linearGradient>
  <clipPath id="g" clipPathUnits="userSpaceOnUse">
   <path clip-rule="evenodd" d="m1888 1898c-13.83 19.69-44.5 36.78-77.68 42.8l4.408-11.31c23.12-4.646 44.32-16.48 54.53-30.24l18.74-1.241zm-38.7-57.22c34.25 3.457 51.79 21.87 45.41 43.73l-19.19 0.9541c2.364-14.49-10.04-26.15-32.39-28.85l6.171-15.84zm-98.06 66.28c0.9614 14.54 17.45 24.02 40.59 24.55l-4.158 11.53c-34.64 0.7588-60.42-12.67-61.19-34.44l24.77-1.64zm-21.11-14.37c12.46-26.08 52.74-47.88 94.44-51.86l-5.856 16.23c-27.18 3.837-52.76 17.68-63.01 34.35l-25.57 1.271z"/>
  </clipPath>
  <linearGradient id="h" x1="1825" gradientUnits="userSpaceOnUse" y1="1833" gradientTransform="matrix(1.25,0,0,-1.25,-2321,2855)" x2="1796" y2="1949">
   <stop stop-color="#981d22" offset="0"/>
   <stop stop-color="#cb2831" offset=".9555"/>
   <stop stop-color="#bb252d" offset="1"/>
  </linearGradient>
  <filter id="f" style="color-interpolation-filters:sRGB" height="1.31" width="1.187" y="-.1548" x="-.09352">
   <feGaussianBlur stdDeviation="6.6054232"/>
  </filter>
  <linearGradient id="d" y2="675.5" xlink:href="#a" gradientUnits="userSpaceOnUse" x2="227.9" y1="675.5" x1="-158.8"/>
  <radialGradient id="b" xlink:href="#a" gradientUnits="userSpaceOnUse" cy="539.5" cx="-10.12" gradientTransform="matrix(2.01 -3.763e-8 0 .2399 13.21 515.6)" r="193.4"/>
 </defs>
 <g transform="translate(171 -426.1)">
  <g filter="url(#f)" fill-opacity=".3939" transform="matrix(1.153 0 0 -.9837 -2143 2361)">
   <g fill-opacity=".3939" clip-path="url(#g)">
    <path fill-opacity=".3939" fill-rule="evenodd" d="m1888 1898c-13.83 19.69-44.5 36.78-77.68 42.8l4.408-11.31c23.12-4.646 44.32-16.48 54.53-30.24l18.74-1.241zm-38.7-57.22c34.25 3.457 51.79 21.87 45.41 43.73l-19.19 0.9541c2.364-14.49-10.04-26.15-32.39-28.85l6.171-15.84zm-98.06 66.28c0.9614 14.54 17.45 24.02 40.59 24.55l-4.158 11.53c-34.64 0.7588-60.42-12.67-61.19-34.44l24.77-1.64zm-21.11-14.37c12.46-26.08 52.74-47.88 94.44-51.86l-5.856 16.23c-27.18 3.837-52.76 17.68-63.01 34.35l-25.57 1.271z"/>
   </g>
  </g>
  <path fill="url(#h)" d="m38.09 482.6c-17.29-24.62-55.63-45.97-97.1-53.49l5.51 14.14c28.9 5.808 55.41 20.6 68.16 37.8l23.42 1.552zm-48.38 71.53c42.81-4.321 64.74-27.34 56.77-54.66l-23.99-1.193c2.954 18.12-12.55 32.69-40.49 36.06l7.714 19.8zm-122.6-82.85c1.202-18.18 21.82-30.02 50.73-30.69l-5.198-14.41c-43.29-0.9485-75.53 15.83-76.49 43.05l30.96 2.05zm-26.38 17.96c15.57 32.6 65.92 59.84 118 64.82l-7.32-20.29c-33.97-4.796-65.95-22.1-78.76-42.94l-31.96-1.589z" fill-rule="evenodd"/>
  <g transform="matrix(1.794 0 0 1.794 400.4 -699.2)" fill="url(#d)">
   <path fill="url(#b)" d="m212.8 639.7c0 4.52 2.92 7.32 7.56 7.32s7.56-2.8 7.56-7.32-2.92-7.32-7.56-7.32-7.56 2.8-7.56 7.32zm2 0c0-3.64 1.88-5.64 5.56-5.64s5.56 2 5.56 5.64-1.88 5.64-5.56 5.64-5.56-2-5.56-5.64zm9.12 4.08-2.12-3.48c1.2-0.2 2-0.96 2-2.48 0-1.56-1-2.28-3.36-2.28h-3.08v8.24h1.84v-3.32h0.64l1.96 3.32h2.12zm-2-5.8c0 0.8-0.36 1.2-1.72 1.2h-1v-2.2h1.16c1.24 0 1.56 0.24 1.56 1zm-41.96 57.82c-4.259 2.044-7.751 5.281-7.751 10.56 0 7.666 4.94 12.18 18.74 12.18 14.22 0 20.02-5.792 20.02-13.97 0-5.962-2.811-8.602-9.625-10.14l-11.92-2.555c-5.451-1.107-6.388-2.214-6.388-3.748 0-1.192 0.6814-2.044 2.129-2.981 1.448 0.5962 3.492 0.9369 6.047 0.9369 11.5 0 16.95-4.344 16.95-15.33 0-4.003-0.8517-6.303-2.129-7.836l6.899-0.6814v-5.281h-12.78c-2.044-0.7666-4.855-1.278-8.858-1.278-11.5 0-17.03 4.259-17.03 15.25 0 6.473 1.959 9.965 4.77 12.18-2.555 1.703-4.088 3.662-4.088 6.388 0 2.981 1.789 4.94 5.025 6.303zm17.46 4.429c3.662 0.7666 5.366 2.3 5.366 5.11 0 3.918-2.896 7.325-11.58 7.325-8.517 0-10.82-2.811-10.82-7.069 0-4.003 2.981-6.303 6.814-7.58l10.22 2.214zm2.64-29.3c0 7.155-2.47 9.284-8.858 9.284s-8.858-2.214-8.858-9.454c0-7.155 2.47-9.284 8.858-9.284 6.303 0 8.858 2.214 8.858 9.454zm-64.39-14.1v-6.984c0-6.643 2.47-8.773 7.155-8.773 2.129 0 3.918 0.1704 5.792 0.6814l0.9369-6.218c-2.044-0.511-4.77-0.9369-7.495-0.9369-10.14 0-14.82 3.918-14.82 15.59v6.643h-6.558v6.303h6.558v35.6h8.432v-35.6h18.14v35.6h8.432v-41.91h-26.57zm27.43-13.97c0-3.833-1.022-4.94-5.11-4.94-4.003 0-5.11 1.107-5.11 4.94s1.107 4.94 5.11 4.94c4.088 0 5.11-1.107 5.11-4.94zm-50.42 55.92v-29.04c0-9.625-3.918-13.8-12.69-13.8-5.451 0-10.39 2.129-15.59 5.196l-0.511-4.259h-6.984v41.91h8.432v-31.51c4.685-2.981 8.602-4.514 12.09-4.514 4.684 0 6.899 2.044 6.899 8.602v27.43h8.347zm-47.27-21.29c0-17.72-6.643-21.97-18.48-21.97-11.75 0-18.74 4.855-18.74 22.4 0 17.63 6.558 22.06 18.4 22.06s18.82-4.94 18.82-22.49zm-8.432 0.2555c0 13.12-3.407 15.76-10.14 15.76-6.814 0-10.22-2.64-10.22-15.84 0-13.12 3.407-15.67 10.14-15.67 6.729 0 10.22 2.64 10.22 15.76zm-47.29 15.5c-10.73 0-15.59-3.407-15.59-24.19 0-20.53 5.196-23.93 15.59-23.93 3.833 0 7.836 0.5962 11.41 1.618l1.022-6.558c-3.833-1.107-8.432-1.789-13.03-1.789-15.08 0-23.51 5.792-23.51 31 0 25.3 7.24 30.58 22.83 30.58 4.685 0 9.625-0.9369 13.71-1.959l-1.022-6.558c-3.748 1.022-7.751 1.789-11.41 1.789zm-34.07-18.3c0-15.42-4.77-19.42-15.84-19.42s-18.31 4.855-18.31 22.4c0 18.23 6.814 21.72 18.4 21.72 5.025 0 9.369-0.6814 13.71-1.703l-0.6814-6.218c-4.003 0.8517-7.325 1.448-11.5 1.448-7.921 0-11.33-1.703-11.5-13.29h25.55c0.08517-1.874 0.1703-3.322 0.1703-4.94zm-25.64-0.6814c0.2555-9.88 3.577-12.35 9.454-12.35 5.962 0 8.432 2.214 8.602 12.35h-18.06zm-21.78-17.42-7.24 22.06c-1.618 5.11-2.555 8.773-3.918 14.14h-0.1703c-1.363-5.366-2.3-8.773-3.918-14.14l-7.155-22.06h-8.602l13.71 41.91h11.67l13.8-41.91h-8.177zm-39.22 41.95v-41.91h-8.432v41.91h8.432zm0.9369-55.87c0-3.833-1.107-4.94-5.196-4.94-4.003 0-5.11 1.107-5.11 4.94s1.107 4.94 5.11 4.94c4.088 0 5.196-1.107 5.196-4.94zm-17.29 55.87v-6.899h-22.83v-52.3h-8.517v59.2h31.34z"/>
  </g>
 </g>
</svg>
